# File created by Blade
# Date/Time:  Thu Jan 22 16:16:06 2015
# Frame Rate: 120.000 fps
#------------------------------------------------------
:FULLY-SPECIFIED
:DEGREES
386
root 1.030284 34.458737 -5.622816 38.619057 -33.617639 4.665136
RightUpLeg -57.610247 -4.059986 -26.953226
RightLeg 2.470485 -0.000000 -0.000000
RightFoot 3.326721 -18.473825 26.392366
RightToeBase 15.082599 -0.000000 -0.000000
LeftUpLeg -31.544189 34.111661 -2.076988
LeftLeg -6.106714 -0.000000 0.000000
LeftFoot -1.775720 19.222012 -37.533539
LeftToeBase 12.441970 -0.000000 -0.000000
Spine 69.123306 -17.001782 1.433058
RightShoulder 13.091411 6.196519 -34.561421
RightArm 60.683785 28.338606 39.622749
RightForeArm -2.870166 -0.000000 27.422431
RightHand 12.437658 -0.000000 -18.519575
RightHandThumb1 -24.326973 -0.000000 -32.862282
LeftShoulder 5.306434 -1.174398 47.238650
LeftArm 89.555541 -22.110877 -36.220153
LeftForeArm 58.721693 -0.000000 12.341493
LeftHand -11.924180 0.000000 9.844834
LeftHandThumb1 -26.253704 0.000000 33.147579
Head -6.858324 7.305934 15.236911
387
root 1.013582 34.460988 -5.608661 39.115342 -33.775370 4.448201
RightUpLeg -58.080818 -4.331958 -26.348253
RightLeg 2.454529 -0.000000 -0.000000
RightFoot 3.649286 -18.043769 26.067905
RightToeBase 15.173228 -0.000000 -0.000000
LeftUpLeg -31.851262 34.300603 -2.197097
LeftLeg -6.231679 -0.000000 0.000000
LeftFoot -1.751794 19.258372 -37.629606
LeftToeBase 12.301796 -0.000000 -0.000000
Spine 69.474733 -16.929542 1.286428
RightShoulder 13.123583 6.506416 -34.606770
RightArm 60.952846 28.477763 39.404569
RightForeArm -2.856885 -0.000000 27.134579
RightHand 12.606829 -0.000000 -18.447085
RightHandThumb1 -24.326973 -0.000000 -32.862282
LeftShoulder 5.334697 -1.378392 47.231528
LeftArm 89.473308 -22.373231 -36.228217
LeftForeArm 59.090596 0.000000 12.152611
LeftHand -12.237003 -0.000000 9.508850
LeftHandThumb1 -26.253704 0.000000 33.147579
Head -6.920273 7.414110 15.250150
388
root 1.003431 34.460673 -5.586445 39.523033 -33.883881 4.312995
RightUpLeg -58.411238 -4.459703 -26.077101
RightLeg 2.395609 -0.000000 -0.000000
RightFoot 3.756453 -17.923402 25.905026
RightToeBase 15.175093 -0.000000 -0.000000
LeftUpLeg -32.162061 34.454979 -2.378990
LeftLeg -6.301096 -0.000000 0.000000
LeftFoot -1.757338 19.247270 -37.684254
LeftToeBase 12.305779 -0.000000 -0.000000
Spine 69.830536 -16.897708 1.228705
RightShoulder 13.035103 6.600448 -34.698660
RightArm 61.360328 28.787863 39.363793
RightForeArm -2.821703 -0.000000 26.891261
RightHand 12.786774 -0.000000 -18.073490
RightHandThumb1 -24.326973 -0.000000 -32.862282
LeftShoulder 5.422877 -1.760803 47.204231
LeftArm 89.342400 -22.575197 -36.175518
LeftForeArm 59.393346 -0.000000 11.911408
LeftHand -12.311793 -0.000000 9.541509
LeftHandThumb1 -26.253704 0.000000 33.147579
Head -7.013740 7.455412 15.244151
389
root 0.998161 34.459301 -5.564215 39.928976 -34.065506 4.217635
RightUpLeg -58.777206 -4.478230 -26.022948
RightLeg 2.350307 -0.000000 -0.000000
RightFoot 3.776502 -17.945371 25.828824
RightToeBase 15.156431 -0.000000 -0.000000
LeftUpLeg -32.534991 34.691367 -2.698514
LeftLeg -6.345808 -0.000000 0.000000
LeftFoot -1.725403 19.171343 -37.722174
LeftToeBase 12.238650 -0.000000 -0.000000
Spine 70.172376 -16.867691 0.972860
RightShoulder 13.012210 6.950803 -34.761530
RightArm 61.675620 28.909179 39.415140
RightForeArm -2.768054 -0.000000 26.720589
RightHand 12.912101 -0.000000 -17.968688
RightHandThumb1 -24.326973 -0.000000 -32.862282
LeftShoulder 5.400375 -1.941539 47.172382
LeftArm 89.241481 -22.821063 -36.104117
LeftForeArm 59.723874 -0.000000 11.769323
LeftHand -12.487194 -0.000000 9.274729
LeftHandThumb1 -26.253704 0.000000 33.147579
Head -7.054004 7.697024 15.218699
390
root 0.990535 34.457378 -5.545820 40.330355 -34.292100 4.099757
RightUpLeg -59.172103 -4.406152 -26.034390
RightLeg 2.339278 -0.000000 -0.000000
RightFoot 3.790368 -18.056208 25.722271
RightToeBase 14.998745 -0.000000 -0.000000
LeftUpLeg -32.832409 34.897079 -2.954092
LeftLeg -6.427611 -0.000000 0.000000
LeftFoot -1.711329 19.175206 -37.748463
LeftToeBase 12.156171 -0.000000 -0.000000
Spine 70.527138 -16.768986 0.642386
RightShoulder 13.014316 7.275043 -34.815651
RightArm 61.959288 29.012118 39.434775
RightForeArm -2.865407 0.000000 26.631739
RightHand 12.711691 -0.000000 -18.099266
RightHandThumb1 -24.326973 -0.000000 -32.862282
LeftShoulder 5.381295 -2.064135 47.157313
LeftArm 89.116294 -23.124429 -35.952502
LeftForeArm 59.690194 -0.000000 11.625670
LeftHand -12.620073 -0.000000 8.824778
LeftHandThumb1 -26.253704 0.000000 33.147579
Head -7.089904 7.920610 15.250325
391
root 0.985490 34.458568 -5.524300 40.705198 -34.445280 4.025017
RightUpLeg -59.521001 -4.411486 -26.030350
RightLeg 2.326434 -0.000000 -0.000000
RightFoot 3.796288 -18.127406 25.653332
RightToeBase 15.038690 -0.000000 -0.000000
LeftUpLeg -33.106616 34.963230 -3.157318
LeftLeg -6.518334 -0.000000 0.000000
LeftFoot -1.759178 19.265801 -37.836337
LeftToeBase 12.136199 -0.000000 -0.000000
Spine 70.892173 -16.845158 0.233674
RightShoulder 13.153378 7.817157 -34.893228
RightArm 62.169501 29.021739 39.484982
RightForeArm -3.010205 -0.000000 26.519269
RightHand 12.357595 -0.000000 -17.946285
RightHandThumb1 -24.326973 -0.000000 -32.862282
LeftShoulder 5.308475 -2.001523 47.061499
LeftArm 88.998556 -23.542400 -35.753868
LeftForeArm 59.798428 -0.000000 11.466552
LeftHand -13.067562 -0.000000 8.277796
LeftHandThumb1 -26.253704 0.000000 33.147579
Head -7.015151 8.122259 15.002308
392
root 0.963177 34.460344 -5.504094 41.086175 -34.613151 3.789275
RightUpLeg -59.827150 -4.253309 -25.941753
RightLeg 2.311732 -0.000000 -0.000000
RightFoot 3.807136 -18.220444 25.537952
RightToeBase 15.009837 -0.000000 -0.000000
LeftUpLeg -33.237600 35.140772 -3.165294
LeftLeg -6.635092 -0.000000 0.000000
LeftFoot -1.774400 19.364503 -37.956820
LeftToeBase 11.953695 -0.000000 -0.000000
Spine 71.385680 -16.720735 -0.047346
RightShoulder 13.149464 8.278456 -34.934567
RightArm 62.378200 29.093934 39.546955
RightForeArm -3.051844 -0.000000 26.450288
RightHand 12.316032 -0.000000 -17.684053
RightHandThumb1 -24.326973 -0.000000 -32.862282
LeftShoulder 5.186877 -2.068429 47.084220
LeftArm 88.913114 -23.875958 -35.656247
LeftForeArm 60.023699 -0.000000 11.371521
LeftHand -12.468245 0.000000 7.338847
LeftHandThumb1 -26.253704 0.000000 33.147579
Head -7.134502 8.389954 14.986653
393
root 0.961432 34.458664 -5.486310 41.450859 -34.756922 3.753466
RightUpLeg -60.221502 -4.313400 -25.948540
RightLeg 2.381727 -0.000000 -0.000000
RightFoot 3.811127 -18.207112 25.487317
RightToeBase 14.957433 -0.000000 -0.000000
LeftUpLeg -33.539173 35.173143 -3.402960
LeftLeg -6.717882 -0.000000 0.000000
LeftFoot -1.855246 19.464461 -38.051229
LeftToeBase 12.014839 -0.000000 -0.000000
Spine 71.668872 -16.685225 -0.304990
RightShoulder 13.088688 8.567544 -34.962584
RightArm 62.615020 29.203697 39.548344
RightForeArm -2.923836 -0.000000 26.347475
RightHand 12.248005 -0.000000 -17.447478
RightHandThumb1 -24.326973 -0.000000 -32.862282
LeftShoulder 5.167381 -2.219775 47.084424
LeftArm 88.865661 -24.154839 -35.604144
LeftForeArm 60.227500 -0.000000 11.204929
LeftHand -12.399182 -0.000000 6.726831
LeftHandThumb1 -26.253704 0.000000 33.147579
Head -7.165660 8.499859 14.953395
394
root 0.945147 34.459825 -5.467257 41.837701 -34.875795 3.580324
RightUpLeg -60.572506 -4.278417 -25.823469
RightLeg 2.434256 -0.000000 -0.000000
RightFoot 3.769724 -18.223816 25.472932
RightToeBase 15.023337 -0.000000 -0.000000
LeftUpLeg -33.782249 35.311862 -3.506550
LeftLeg -6.784078 -0.000000 0.000000
LeftFoot -1.872244 19.503492 -38.124200
LeftToeBase 11.990004 -0.000000 -0.000000
Spine 72.020613 -16.601590 -0.468442
RightShoulder 13.050653 8.804685 -35.038828
RightArm 62.804172 29.378907 39.545712
RightForeArm -2.772333 0.000000 26.304191
RightHand 12.175360 0.000000 -17.470812
RightHandThumb1 -24.326973 -0.000000 -32.862282
LeftShoulder 5.171715 -2.365363 47.057543
LeftArm 88.787496 -24.501073 -35.534255
LeftForeArm 60.497773 -0.000000 11.075305
LeftHand -12.422374 -0.000000 6.152869
LeftHandThumb1 -26.253704 0.000000 33.147579
Head -7.181717 8.628731 14.836239
395
root 0.930252 34.460103 -5.452778 42.192006 -34.999270 3.433010
RightUpLeg -60.932073 -4.266995 -25.712851
RightLeg 2.541319 -0.000000 -0.000000
RightFoot 3.760580 -18.165891 25.490568
RightToeBase 14.957418 -0.000000 -0.000000
LeftUpLeg -33.977623 35.405452 -3.586860
LeftLeg -6.880467 -0.000000 0.000000
LeftFoot -1.896257 19.591967 -38.222330
LeftToeBase 11.949114 -0.000000 -0.000000
Spine 72.370893 -16.513513 -0.685380
RightShoulder 13.036991 9.169363 -35.091912
RightArm 62.938890 29.520500 39.667093
RightForeArm -2.620878 0.000000 26.282512
RightHand 12.273643 -0.000000 -16.865332
RightHandThumb1 -24.326973 -0.000000 -32.862282
LeftShoulder 5.198974 -2.580891 47.036179
LeftArm 88.599997 -24.792116 -35.426593
LeftForeArm 60.729049 -0.000000 10.945178
LeftHand -12.531950 -0.000000 5.834008
LeftHandThumb1 -26.253704 0.000000 33.147579
Head -7.169358 8.770576 14.731332
396
root 0.907886 34.460179 -5.442373 42.587839 -35.159505 3.202419
RightUpLeg -61.302978 -4.133822 -25.637289
RightLeg 2.621633 -0.000000 -0.000000
RightFoot 3.738259 -18.190495 25.501181
RightToeBase 14.940331 -0.000000 -0.000000
LeftUpLeg -34.261802 35.704390 -3.736201
LeftLeg -6.909183 -0.000000 0.000000
LeftFoot -1.845997 19.516460 -38.285060
LeftToeBase 11.883133 -0.000000 -0.000000
Spine 72.710241 -16.321859 -0.858340
RightShoulder 13.022848 9.493261 -35.154685
RightArm 63.060036 29.635475 39.777913
RightForeArm -2.853748 0.000000 26.269823
RightHand 12.015043 -0.000000 -16.923078
RightHandThumb1 -24.326973 -0.000000 -32.862282
LeftShoulder 5.196817 -2.736535 47.016368
LeftArm 88.577284 -25.112149 -35.431619
LeftForeArm 61.061115 0.000000 10.786113
LeftHand -12.676784 -0.000000 5.251935
LeftHandThumb1 -26.253704 0.000000 33.147579
Head -7.144719 8.912953 14.604423
397
root 0.894194 34.458928 -5.435384 42.978679 -35.308064 3.055169
RightUpLeg -61.694331 -4.084066 -25.606120
RightLeg 2.693147 -0.000000 -0.000000
RightFoot 3.724986 -18.210640 25.523146
RightToeBase 14.923890 -0.000000 -0.000000
LeftUpLeg -34.603614 35.907984 -3.956803
LeftLeg -6.929176 -0.000000 0.000000
LeftFoot -1.826472 19.489373 -38.295675
LeftToeBase 11.877571 -0.000000 -0.000000
Spine 72.989093 -16.250097 -1.169378
RightShoulder 13.099690 9.928594 -35.241653
RightArm 63.161160 29.698328 39.932418
RightForeArm -2.751954 -0.000000 26.257976
RightHand 11.987629 -0.000000 -16.753853
RightHandThumb1 -24.326973 -0.000000 -32.862282
LeftShoulder 5.140260 -2.713353 46.945352
LeftArm 88.554476 -25.491151 -35.447637
LeftForeArm 61.283618 0.000000 10.642194
LeftHand -12.665326 -0.000000 4.975580
LeftHandThumb1 -26.253704 0.000000 33.147579
Head -7.050696 9.080041 14.332566
